<svg width="12" height="14" viewBox="0 0 12 14" fill="none" xmlns="http://www.w3.org/2000/svg">
<g id="Group">
<path id="Vector" d="M3.08691 0.352539C3.21601 0.352647 3.33512 0.40563 3.4209 0.492188H3.42188C3.50753 0.577847 3.56042 0.69658 3.56055 0.827148V1.31445C3.56055 1.45476 3.44643 1.56738 3.30762 1.56738C3.1675 1.56716 3.05566 1.45313 3.05566 1.31445V0.857422H1.28418V6.30957H3.05566V3.04688C3.05566 2.90671 3.16899 2.79416 3.30762 2.79395C3.44792 2.79395 3.56055 2.90806 3.56055 3.04688V5.49414C3.8453 5.24603 4.17999 5.18741 4.50879 5.17676H4.85352L5.0332 5.17773H9.51074C9.88223 5.18339 10.2555 5.21415 10.5596 5.34668C10.7647 5.43608 10.9402 5.57276 11.0635 5.7793C11.1739 5.96432 11.2358 6.20196 11.2471 6.50488C11.2514 6.5235 11.2549 6.54259 11.2549 6.5625C11.2549 6.56912 11.2556 6.58061 11.2539 6.59277C11.2258 7.74596 10.9286 8.49254 10.5137 9.01953C10.2029 9.41421 9.82802 9.68249 9.46094 9.90625L9.09961 10.1182C8.54055 10.4393 8.08754 10.7033 8.00195 11.2568L8.00098 11.2598L8 11.2607L8.00098 11.2617C7.96767 11.4818 7.98516 11.7381 8.05664 12.0312L8.12305 12.2676C8.20073 12.5119 8.31178 12.7786 8.45703 13.0684L8.47559 13.1162C8.50168 13.2137 8.46589 13.3178 8.38672 13.3799L8.34375 13.4072C8.30742 13.4254 8.26784 13.4336 8.23047 13.4336H2.21191C2.07186 13.4335 1.95924 13.3202 1.95898 13.1816C1.95898 13.1351 1.97291 13.0909 1.99609 13.0527H1.99512L3.0459 10.9482L0.808594 6.68066L0.807617 6.67969C0.806072 6.67669 0.806102 6.67295 0.804688 6.66992C0.799703 6.65937 0.794516 6.64897 0.791016 6.6377C0.789615 6.63314 0.788242 6.62861 0.787109 6.62402C0.784573 6.61384 0.783474 6.60339 0.782227 6.59277C0.781465 6.58623 0.78052 6.57978 0.780273 6.57324C0.780148 6.56999 0.779297 6.56675 0.779297 6.56348V0.826172C0.779403 0.696572 0.832801 0.578649 0.917969 0.492188V0.491211L0.918945 0.490234H0.919922L0.990234 0.432617C1.06562 0.382301 1.15596 0.352634 1.25391 0.352539H3.08691ZM3.48242 10.6934H5.42773C5.56804 10.6934 5.68066 10.8075 5.68066 10.9463C5.68056 11.0865 5.56648 11.1992 5.42773 11.1992H3.48535L2.62012 12.9297H7.83496C7.74856 12.73 7.67694 12.5391 7.62207 12.3564L7.56641 12.1514C7.47959 11.7955 7.4573 11.4736 7.50098 11.1875L7.50195 11.1807C7.62646 10.3787 8.21373 10.0452 8.84766 9.68164L9.16504 9.49609C9.48398 9.3023 9.80203 9.07613 10.0693 8.75098C10.416 8.32913 10.6793 7.73532 10.7383 6.81738H1.4502L3.48242 10.6934ZM4.8457 5.68164C4.6568 5.67846 4.47011 5.67504 4.29883 5.70312C4.1712 5.72407 4.0549 5.76179 3.95508 5.82812L3.86133 5.9043C3.78655 5.97714 3.72503 6.06917 3.6748 6.18066C3.65684 6.22077 3.64075 6.26376 3.62598 6.30957H10.7168C10.6932 6.21383 10.6583 6.13337 10.6133 6.06641C10.5278 5.93933 10.4049 5.85388 10.2549 5.7959C10.0263 5.7076 9.74171 5.68647 9.44531 5.68262H9.14648C9.03017 5.68365 9.02985 5.68457 8.95996 5.68457H5.0332L4.8457 5.68164ZM2.45703 1.53027C2.69862 1.53036 2.90561 1.67344 3.00098 1.87891H4.29199C4.43214 1.87891 4.54467 1.99225 4.54492 2.13086C4.54492 2.27116 4.43081 2.38379 4.29199 2.38379H3.00098C2.9056 2.58923 2.69861 2.73234 2.45703 2.73242C2.12498 2.73242 1.85645 2.46292 1.85645 2.13086C1.85669 1.79894 2.12626 1.53027 2.45703 1.53027Z" fill="#475467" stroke="#475467" stroke-width="0.12151"/>
</g>
</svg>
