<svg width="14" height="14" viewBox="0 0 14 14" fill="none" xmlns="http://www.w3.org/2000/svg">
<g id="bed-svgrepo-com (1)" clip-path="url(#clip0_496_11775)">
<path id="Vector" d="M1.91086 0.413086C1.48456 0.413086 1.13319 0.852295 1.13319 1.38517V6.30634C1.1342 6.32659 1.13724 6.34684 1.14129 6.36709C1.14129 6.37089 1.14129 6.37342 1.14129 6.37722C1.02484 6.60632 0.92966 6.8506 0.857767 7.11641C0.696766 7.71004 0.62791 8.391 0.614746 9.16183V9.48586C0.614746 9.49598 0.614746 9.50611 0.614746 9.51624V13.3742H2.4293V12.0781C2.4293 11.8085 2.48196 11.668 2.55081 11.5819C2.61967 11.4958 2.73206 11.43 2.94774 11.43H11.2429C11.4585 11.43 11.5709 11.4958 11.6398 11.5819C11.7086 11.668 11.7613 11.8085 11.7613 12.0781V13.3742H13.5759V9.53649C13.5769 9.52003 13.5769 9.50231 13.5759 9.48586C13.5759 9.37447 13.5779 9.26942 13.5759 9.16183C13.5627 8.391 13.4938 7.71004 13.3328 7.11641C13.2609 6.85313 13.1647 6.61391 13.0493 6.38734C13.0544 6.36076 13.0574 6.33418 13.0574 6.30634V1.38517C13.0574 0.852295 12.706 0.413086 12.2797 0.413086H1.91086ZM1.91086 1.06114H12.2797C12.4256 1.06114 12.539 1.2029 12.539 1.38517V5.64816C12.4752 5.58107 12.4073 5.51652 12.3364 5.45577C12.1633 5.30641 11.975 5.16718 11.7613 5.05073V3.65336C11.7613 3.42553 11.6418 3.24833 11.5102 3.13694C11.3785 3.02556 11.2175 2.94835 11.016 2.8838C10.613 2.75469 10.047 2.68128 9.29869 2.68128C8.55038 2.68128 7.98435 2.75469 7.58134 2.8838C7.3849 2.94708 7.22491 3.01923 7.0953 3.12682C6.96569 3.01923 6.8057 2.94708 6.60926 2.8838C6.20625 2.75469 5.64021 2.68128 4.89191 2.68128C4.14361 2.68128 3.57757 2.75469 3.17456 2.8838C2.97306 2.94835 2.81206 3.02556 2.68042 3.13694C2.54879 3.24833 2.4293 3.42553 2.4293 3.65336V5.05073C2.21564 5.16718 2.0273 5.30641 1.85415 5.45577C1.78327 5.51652 1.71543 5.58107 1.65163 5.64816V1.38517C1.65163 1.2029 1.76504 1.06114 1.91086 1.06114ZM4.89191 3.32933C5.61287 3.32933 6.14752 3.40528 6.47965 3.5116C6.64571 3.56476 6.76013 3.62931 6.81177 3.67361C6.83304 3.69133 6.83405 3.69387 6.83608 3.69387V4.30142C5.13189 4.31534 3.87021 4.47482 2.94774 4.82796V3.69387C2.94977 3.69387 2.95078 3.69133 2.97205 3.67361C3.02369 3.62931 3.13811 3.56476 3.30418 3.5116C3.6363 3.40528 4.17095 3.32933 4.89191 3.32933ZM9.29869 3.32933C10.0196 3.32933 10.5543 3.40528 10.8864 3.5116C11.0525 3.56476 11.1669 3.62931 11.2185 3.67361C11.2398 3.69133 11.2408 3.69387 11.2429 3.69387V4.82796C10.3204 4.47482 9.0587 4.31534 7.35452 4.30142V3.69387C7.35655 3.69387 7.35756 3.69133 7.37882 3.67361C7.43046 3.62931 7.54489 3.56476 7.71095 3.5116C8.04308 3.40528 8.57772 3.32933 9.29869 3.32933ZM7.04669 4.94947C7.07403 4.95454 7.10036 4.95454 7.1277 4.94947C7.1358 4.94947 7.1439 4.94947 7.152 4.94947C9.74625 4.95454 11.2449 5.29375 12.0448 5.98231C12.4478 6.32912 12.6919 6.75947 12.8468 7.32905C12.9815 7.82522 13.0361 8.43657 13.0493 9.16183H1.14129C1.15445 8.43657 1.20913 7.82522 1.34381 7.32905C1.49873 6.75947 1.74277 6.32912 2.14578 5.98231C2.94572 5.29249 4.44739 4.95327 7.04669 4.94947ZM1.13319 9.80989H13.0574V12.7261H12.2797V12.0781C12.2797 11.6996 12.2028 11.3541 12.0124 11.1161C11.8221 10.8782 11.5456 10.782 11.2429 10.782H2.94774C2.64498 10.782 2.36855 10.8782 2.17818 11.1161C1.98781 11.3541 1.91086 11.6996 1.91086 12.0781V12.7261H1.13319V9.80989Z" fill="#475467"/>
</g>
<defs>
<clipPath id="clip0_496_11775">
<rect width="12.9611" height="12.9611" fill="white" transform="translate(0.614746 0.413086)"/>
</clipPath>
</defs>
</svg>
