<svg width="20" height="20" viewBox="0 0 20 20" fill="none" xmlns="http://www.w3.org/2000/svg">
<g id="bell-01">
<path id="Icon" d="M7.79517 17.5003C8.38278 18.019 9.15465 18.3337 10 18.3337C10.8454 18.3337 11.6173 18.019 12.2049 17.5003M15 6.66699C15 5.34091 14.4732 4.06914 13.5356 3.13146C12.5979 2.19378 11.3261 1.66699 10 1.66699C8.67394 1.66699 7.40217 2.19378 6.46449 3.13146C5.52681 4.06914 5.00003 5.34091 5.00003 6.66699C5.00003 9.24215 4.35042 11.0053 3.62475 12.1715C3.01263 13.1552 2.70657 13.6471 2.7178 13.7843C2.73022 13.9362 2.76241 13.9942 2.88484 14.085C2.99541 14.167 3.49385 14.167 4.49074 14.167H15.5093C16.5062 14.167 17.0046 14.167 17.1152 14.085C17.2376 13.9942 17.2698 13.9362 17.2823 13.7843C17.2935 13.6471 16.9874 13.1552 16.3753 12.1715C15.6496 11.0053 15 9.24215 15 6.66699Z" stroke="#101828" stroke-width="1.66667" stroke-linecap="round" stroke-linejoin="round"/>
</g>
</svg>
