<svg width="15" height="15" viewBox="0 0 15 15" fill="none" xmlns="http://www.w3.org/2000/svg">
<g id="calendar-plus-02" clip-path="url(#clip0_496_11800)">
<path id="Icon" d="M12.9657 7.0901V5.44971C12.9657 4.42893 12.9657 3.91854 12.7671 3.52865C12.5923 3.1857 12.3135 2.90686 11.9705 2.73212C11.5806 2.53346 11.0703 2.53346 10.0495 2.53346H4.94603C3.92525 2.53346 3.41486 2.53346 3.02497 2.73212C2.68202 2.90686 2.40319 3.1857 2.22844 3.52865C2.02979 3.91854 2.02979 4.42893 2.02979 5.44971V10.5531C2.02979 11.5739 2.02979 12.0843 2.22844 12.4742C2.40319 12.8172 2.68202 13.096 3.02497 13.2707C3.41486 13.4694 3.92525 13.4694 4.94603 13.4694H7.80153M12.9657 6.17877H2.02979M9.92796 1.31836V3.74857M5.06754 1.31836V3.74857M11.1431 12.8618V9.21653M9.32041 11.0392H12.9657" stroke="#039855" stroke-width="1.2151" stroke-linecap="round" stroke-linejoin="round"/>
</g>
<defs>
<clipPath id="clip0_496_11800">
<rect width="14.5812" height="14.5812" fill="white" transform="translate(0.207031 0.103516)"/>
</clipPath>
</defs>
</svg>
