<svg width="18" height="17" viewBox="0 0 18 17" fill="none" xmlns="http://www.w3.org/2000/svg">
<path id="Icon" d="M4.64813 7.85427C4.60306 7.5744 4.57967 7.28768 4.57967 6.99573C4.57967 3.90874 7.19439 1.40625 10.4198 1.40625C13.6452 1.40625 16.26 3.90874 16.26 6.99573C16.26 7.69306 16.1265 8.36057 15.8828 8.97615C15.8321 9.104 15.8068 9.16792 15.7953 9.21783C15.784 9.26728 15.7796 9.30207 15.7783 9.3527C15.7771 9.40381 15.7843 9.46011 15.7987 9.5727L16.0906 11.8575C16.1222 12.1049 16.138 12.2285 16.0953 12.3185C16.0579 12.3972 15.9914 12.4598 15.9088 12.494C15.8145 12.5331 15.6866 12.515 15.4306 12.4789L13.1205 12.1527C12.9999 12.1356 12.9396 12.1271 12.8847 12.1274C12.8303 12.1277 12.7927 12.1316 12.7396 12.1423C12.6858 12.1532 12.6171 12.178 12.4798 12.2276C11.8392 12.4587 11.1449 12.5852 10.4198 12.5852C10.1165 12.5852 9.81863 12.5631 9.52781 12.5204M5.76299 15.3799C7.91327 15.3799 9.65642 13.6595 9.65642 11.5372C9.65642 9.41487 7.91327 7.69441 5.76299 7.69441C3.61271 7.69441 1.86957 9.41487 1.86957 11.5372C1.86957 11.9638 1.94 12.3742 2.07002 12.7576C2.12498 12.9197 2.15246 13.0007 2.16148 13.0561C2.17089 13.1139 2.17254 13.1463 2.16904 13.2047C2.16568 13.2607 2.15115 13.3239 2.12209 13.4504L1.67871 15.3799L3.85068 15.0942C3.96923 15.0786 4.02851 15.0708 4.08027 15.0711C4.13477 15.0715 4.1637 15.0743 4.21715 15.0846C4.26792 15.0943 4.34338 15.12 4.49431 15.1713C4.89198 15.3065 5.3188 15.3799 5.76299 15.3799Z" stroke="#039855" stroke-width="1.74059" stroke-linecap="round" stroke-linejoin="round"/>
</svg>
