<svg width="19" height="20" viewBox="0 0 19 20" fill="none" xmlns="http://www.w3.org/2000/svg">
<g id="Group">
<path id="Vector" d="M7.18787 16.8721V14.3721" stroke="#101828" stroke-miterlimit="10"/>
<path id="Vector_2" d="M12.813 14.3721V16.8721" stroke="#101828" stroke-miterlimit="10"/>
<path id="Vector_3" d="M17.8131 19.373C17.8131 17.9924 16.6937 16.873 15.3131 16.873H12.8131L10.0006 19.0605L7.18811 16.873H4.68811C3.30749 16.873 2.18811 17.9924 2.18811 19.373M3.43811 6.56617V8.03711C3.43811 9.25555 4.27155 10.3612 5.46999 10.5802C6.28436 10.729 7.04092 10.4796 7.5878 9.99805H12.4131C13.0153 10.5284 13.8712 10.7768 14.779 10.523C15.8512 10.223 16.5631 9.2043 16.5631 8.09117V6.75836C16.5631 6.04461 16.1409 5.62305 15.62 5.62305H4.38124C3.8603 5.62305 3.43811 6.04523 3.43811 6.56617Z" stroke="#101828" stroke-miterlimit="10"/>
<path id="Vector_4" d="M14.7794 10.5221C13.8715 10.7761 13.0156 10.5274 12.4134 9.99707H7.5878C7.04092 10.4786 6.28436 10.728 5.46999 10.5793C4.92155 10.4793 4.45092 10.1918 4.1003 9.79426C4.29999 11.603 5.35499 13.2236 6.9628 14.128L8.24592 14.8496C8.78155 15.1511 9.38592 15.3096 10.0006 15.3096C10.6153 15.3096 11.2197 15.1511 11.7553 14.8499L13.0384 14.1283C14.6403 13.2274 15.6934 11.6158 15.8987 9.81582C15.6028 10.1439 15.2247 10.3974 14.7794 10.5221ZM2.81311 8.7527H3.43811V6.24707H2.81311C2.4678 6.24707 2.18811 6.52676 2.18811 6.87207V8.1277C2.18811 8.47301 2.4678 8.7527 2.81311 8.7527Z" stroke="#101828" stroke-miterlimit="10"/>
<path id="Vector_5" d="M2.18799 7.49805C1.32518 7.49805 0.625488 8.19773 0.625488 9.06055V11.5605C0.625488 12.4234 1.32518 13.123 2.18799 13.123H2.50049C3.3633 13.123 4.06299 13.8227 4.06299 14.6855V19.373" stroke="#101828" stroke-miterlimit="10"/>
<path id="Vector_6" d="M5.00012 8.43457H13.4376" stroke="#101828" stroke-miterlimit="10"/>
<path id="Vector_7" d="M15.001 8.43457H14.0635" stroke="#101828" stroke-miterlimit="10"/>
<path id="Vector_8" d="M15.862 5.65961C15.427 2.8093 12.9723 0.623047 10.0001 0.623047C8.2945 0.623047 6.76168 1.34555 5.68075 2.49805H2.50012C2.50012 4.22398 3.89918 5.62305 5.62512 5.62305H10.6307C11.5751 5.62305 12.4289 5.06023 12.8011 4.19211L13.1251 3.43555L13.4492 4.19211C13.8214 5.06023 14.6751 5.62305 15.6195 5.62305" stroke="#101828" stroke-miterlimit="10"/>
</g>
</svg>
