<svg width="28" height="29" viewBox="0 0 28 29" fill="none" xmlns="http://www.w3.org/2000/svg">
<g id="heart">
<path id="Icon" d="M24.3134 5.43124C23.7175 4.83508 23.01 4.36217 22.2313 4.03951C21.4526 3.71685 20.618 3.55078 19.7751 3.55078C18.9322 3.55078 18.0975 3.71685 17.3188 4.03951C16.5401 4.36217 15.8326 4.83508 15.2367 5.43124L14.0001 6.66791L12.7634 5.43124C11.5597 4.2276 9.92726 3.55141 8.22506 3.55141C6.52285 3.55141 4.89036 4.2276 3.68672 5.43124C2.48308 6.63489 1.80688 8.26737 1.80688 9.96958C1.80688 11.6718 2.48308 13.3043 3.68672 14.5079L4.92339 15.7446L14.0001 24.8212L23.0767 15.7446L24.3134 14.5079C24.9096 13.912 25.3825 13.2045 25.7051 12.4258C26.0278 11.6471 26.1939 10.8125 26.1939 9.96958C26.1939 9.12668 26.0278 8.29203 25.7051 7.51333C25.3825 6.73463 24.9096 6.02713 24.3134 5.43124V5.43124Z" stroke="#101828" stroke-width="2.31491" stroke-linecap="round" stroke-linejoin="round"/>
</g>
</svg>
