<svg width="20" height="20" viewBox="0 0 20 20" fill="none" xmlns="http://www.w3.org/2000/svg">
<g id="image-04">
<g id="Icon">
<path d="M2.49988 6.50098C2.49988 5.10085 2.49988 4.40078 2.77236 3.866C3.01205 3.3956 3.3945 3.01314 3.8649 2.77346C4.39968 2.50098 5.09975 2.50098 6.49988 2.50098H13.4999C14.9 2.50098 15.6001 2.50098 16.1349 2.77346C16.6053 3.01314 16.9877 3.3956 17.2274 3.866C17.4999 4.40078 17.4999 5.10085 17.4999 6.50098V13.501C17.4999 14.9011 17.4999 15.6012 17.2274 16.136C16.9877 16.6064 16.6053 16.9888 16.1349 17.2285C15.6001 17.501 14.9 17.501 13.4999 17.501H6.49988C5.09975 17.501 4.39968 17.501 3.8649 17.2285C3.3945 16.9888 3.01205 16.6064 2.77236 16.136C2.49988 15.6012 2.49988 14.9011 2.49988 13.501V6.50098Z" stroke="#101828" stroke-width="1.5" stroke-linecap="round" stroke-linejoin="round"/>
<path d="M7.49988 7.91764L4.99988 12.501H14.9999L11.2499 6.25098L9.16654 9.16764L7.49988 7.91764Z" stroke="#101828" stroke-width="1.5" stroke-linecap="round" stroke-linejoin="round"/>
</g>
</g>
</svg>
