<svg width="14" height="12" viewBox="0 0 14 12" fill="none" xmlns="http://www.w3.org/2000/svg">
<g id="Group">
<g id="Vector">
<mask id="path-1-outside-1_496_11786" maskUnits="userSpaceOnUse" x="-0.541016" y="-0.495117" width="15" height="12" fill="black">
<rect fill="white" x="-0.541016" y="-0.495117" width="15" height="12"/>
<path d="M0.458984 0.504883H13.0119C13.0615 0.504883 13.1089 0.514376 13.1522 0.533362C13.2134 0.559731 13.3283 0.674702 13.3526 0.734824C13.3705 0.77807 13.3811 0.825535 13.3811 0.87511V3.37704C13.3811 3.42662 13.3716 3.47408 13.3526 3.51838C13.3336 3.56374 13.3062 3.60382 13.2724 3.63863L13.2682 3.64179C13.2344 3.67449 13.1954 3.70086 13.1522 3.71879C13.1089 3.73672 13.0615 3.74727 13.0119 3.74727H7.9036C7.88778 3.74727 7.87618 3.73461 7.87618 3.71984V0.940506H3.89545V1.66725L5.19177 3.14183C5.22869 3.18402 5.24556 3.23676 5.2424 3.28949C5.23923 3.34118 5.21603 3.39181 5.17384 3.42978L5.17173 3.43084C5.15274 3.44666 5.1327 3.45931 5.11055 3.4667C5.0884 3.47514 5.06414 3.47936 5.04094 3.47936H1.1467C1.0908 3.47936 1.03911 3.45615 1.00325 3.41923C0.966332 3.38232 0.943127 3.33169 0.943127 3.27578C0.943127 3.24625 0.949456 3.21882 0.961058 3.19351C0.972661 3.16714 0.989537 3.14394 1.01063 3.12495L2.34493 1.66619V0.940506H0.458984V0.504883ZM3.78681 6.68377C3.90705 6.68377 4.00515 6.78186 4.00515 6.90211C4.00515 7.02235 3.90705 7.12045 3.78681 7.12045C3.66656 7.12045 3.56847 7.02235 3.56847 6.90211C3.56847 6.78186 3.66656 6.68377 3.78681 6.68377ZM2.3945 6.68377C2.51475 6.68377 2.61284 6.78186 2.61284 6.90211C2.61284 7.02235 2.51475 7.12045 2.3945 7.12045C2.27426 7.12045 2.17616 7.02235 2.17616 6.90211C2.17616 6.78186 2.27426 6.68377 2.3945 6.68377ZM3.89967 5.51191V5.74291V6.04879H13.052C13.2545 6.04879 13.4211 6.21545 13.4211 6.41796V10.9134C13.4211 11.1159 13.2555 11.2826 13.053 11.2826C8.98158 11.2826 4.91225 11.2826 0.839759 11.2826C0.638296 11.2826 0.470587 11.1149 0.470587 10.9134V6.41796C0.470587 6.21439 0.636187 6.04879 0.839759 6.04879H2.28269C2.28269 5.86948 2.28269 5.69122 2.28269 5.51191H2.76262V5.74291H2.54322V6.04879H3.64019V5.74291H3.4208V5.51191H3.89967ZM13.0129 6.45594H9.88869V10.8755H13.014V6.45594H13.0129ZM9.48155 6.45594H5.39218V7.44004H9.48155V6.45594ZM4.98503 6.45594H0.876676V10.8755H4.98503V6.45594ZM5.39218 10.8744H9.48155V7.84719H5.39218V10.8744ZM10.3739 6.68377C10.4034 6.68377 10.4319 6.6901 10.4572 6.70064L10.4583 6.7017C10.4846 6.71225 10.5078 6.72912 10.5279 6.74811C10.5479 6.76815 10.5638 6.79241 10.5754 6.81878C10.5859 6.84409 10.5922 6.87257 10.5922 6.90211C10.5922 6.93164 10.5859 6.95907 10.5754 6.98543C10.5638 7.0118 10.5479 7.03606 10.5279 7.05611L10.5258 7.05716C10.5057 7.07615 10.4825 7.09197 10.4562 7.10252C10.4308 7.11306 10.4024 7.11939 10.3728 7.11939C10.3433 7.11939 10.3148 7.11306 10.2895 7.10252C10.2642 7.09197 10.241 7.07615 10.2209 7.05716L10.2178 7.05505C10.1977 7.03501 10.1819 7.01075 10.1714 6.98438L10.1703 6.98333C10.1598 6.95801 10.1545 6.93059 10.1545 6.90105C10.1545 6.87152 10.1608 6.84304 10.1714 6.81773C10.1819 6.79136 10.1988 6.7671 10.2188 6.74706C10.2389 6.72701 10.2631 6.71119 10.2895 6.69959L10.2906 6.69854C10.318 6.68904 10.3454 6.68377 10.3739 6.68377ZM8.29703 0.940506H8.28332V3.33801H12.976V0.940506H8.29703ZM8.69785 1.20736C8.71789 1.18838 8.74109 1.17256 8.76746 1.16201C8.79278 1.15146 8.82126 1.14513 8.85079 1.14513C8.88033 1.14513 8.9088 1.15146 8.93412 1.16201L8.93517 1.16306C8.96154 1.17361 8.98475 1.19049 9.00479 1.20947C9.02483 1.22951 9.04065 1.25377 9.05225 1.28014C9.0628 1.30546 9.06913 1.33394 9.06913 1.36347C9.06913 1.39301 9.0628 1.42148 9.05225 1.4468L9.0512 1.44785C9.04065 1.47317 9.02483 1.49637 9.00584 1.51536L9.00268 1.51852C8.98264 1.53751 8.95943 1.55333 8.93412 1.56388C8.9088 1.57443 8.88033 1.58076 8.85079 1.58076C8.82126 1.58076 8.79278 1.57443 8.76746 1.56388C8.74109 1.55333 8.71684 1.53646 8.69679 1.51641C8.67675 1.49637 8.66093 1.47211 8.64933 1.44574C8.63878 1.42043 8.63245 1.39195 8.63245 1.36242C8.63245 1.33288 8.63878 1.30546 8.64933 1.27909C8.66093 1.25272 8.67675 1.22846 8.69679 1.20842L8.69785 1.20736Z"/>
</mask>
<path d="M0.458984 0.504883H13.0119C13.0615 0.504883 13.1089 0.514376 13.1522 0.533362C13.2134 0.559731 13.3283 0.674702 13.3526 0.734824C13.3705 0.77807 13.3811 0.825535 13.3811 0.87511V3.37704C13.3811 3.42662 13.3716 3.47408 13.3526 3.51838C13.3336 3.56374 13.3062 3.60382 13.2724 3.63863L13.2682 3.64179C13.2344 3.67449 13.1954 3.70086 13.1522 3.71879C13.1089 3.73672 13.0615 3.74727 13.0119 3.74727H7.9036C7.88778 3.74727 7.87618 3.73461 7.87618 3.71984V0.940506H3.89545V1.66725L5.19177 3.14183C5.22869 3.18402 5.24556 3.23676 5.2424 3.28949C5.23923 3.34118 5.21603 3.39181 5.17384 3.42978L5.17173 3.43084C5.15274 3.44666 5.1327 3.45931 5.11055 3.4667C5.0884 3.47514 5.06414 3.47936 5.04094 3.47936H1.1467C1.0908 3.47936 1.03911 3.45615 1.00325 3.41923C0.966332 3.38232 0.943127 3.33169 0.943127 3.27578C0.943127 3.24625 0.949456 3.21882 0.961058 3.19351C0.972661 3.16714 0.989537 3.14394 1.01063 3.12495L2.34493 1.66619V0.940506H0.458984V0.504883ZM3.78681 6.68377C3.90705 6.68377 4.00515 6.78186 4.00515 6.90211C4.00515 7.02235 3.90705 7.12045 3.78681 7.12045C3.66656 7.12045 3.56847 7.02235 3.56847 6.90211C3.56847 6.78186 3.66656 6.68377 3.78681 6.68377ZM2.3945 6.68377C2.51475 6.68377 2.61284 6.78186 2.61284 6.90211C2.61284 7.02235 2.51475 7.12045 2.3945 7.12045C2.27426 7.12045 2.17616 7.02235 2.17616 6.90211C2.17616 6.78186 2.27426 6.68377 2.3945 6.68377ZM3.89967 5.51191V5.74291V6.04879H13.052C13.2545 6.04879 13.4211 6.21545 13.4211 6.41796V10.9134C13.4211 11.1159 13.2555 11.2826 13.053 11.2826C8.98158 11.2826 4.91225 11.2826 0.839759 11.2826C0.638296 11.2826 0.470587 11.1149 0.470587 10.9134V6.41796C0.470587 6.21439 0.636187 6.04879 0.839759 6.04879H2.28269C2.28269 5.86948 2.28269 5.69122 2.28269 5.51191H2.76262V5.74291H2.54322V6.04879H3.64019V5.74291H3.4208V5.51191H3.89967ZM13.0129 6.45594H9.88869V10.8755H13.014V6.45594H13.0129ZM9.48155 6.45594H5.39218V7.44004H9.48155V6.45594ZM4.98503 6.45594H0.876676V10.8755H4.98503V6.45594ZM5.39218 10.8744H9.48155V7.84719H5.39218V10.8744ZM10.3739 6.68377C10.4034 6.68377 10.4319 6.6901 10.4572 6.70064L10.4583 6.7017C10.4846 6.71225 10.5078 6.72912 10.5279 6.74811C10.5479 6.76815 10.5638 6.79241 10.5754 6.81878C10.5859 6.84409 10.5922 6.87257 10.5922 6.90211C10.5922 6.93164 10.5859 6.95907 10.5754 6.98543C10.5638 7.0118 10.5479 7.03606 10.5279 7.05611L10.5258 7.05716C10.5057 7.07615 10.4825 7.09197 10.4562 7.10252C10.4308 7.11306 10.4024 7.11939 10.3728 7.11939C10.3433 7.11939 10.3148 7.11306 10.2895 7.10252C10.2642 7.09197 10.241 7.07615 10.2209 7.05716L10.2178 7.05505C10.1977 7.03501 10.1819 7.01075 10.1714 6.98438L10.1703 6.98333C10.1598 6.95801 10.1545 6.93059 10.1545 6.90105C10.1545 6.87152 10.1608 6.84304 10.1714 6.81773C10.1819 6.79136 10.1988 6.7671 10.2188 6.74706C10.2389 6.72701 10.2631 6.71119 10.2895 6.69959L10.2906 6.69854C10.318 6.68904 10.3454 6.68377 10.3739 6.68377ZM8.29703 0.940506H8.28332V3.33801H12.976V0.940506H8.29703ZM8.69785 1.20736C8.71789 1.18838 8.74109 1.17256 8.76746 1.16201C8.79278 1.15146 8.82126 1.14513 8.85079 1.14513C8.88033 1.14513 8.9088 1.15146 8.93412 1.16201L8.93517 1.16306C8.96154 1.17361 8.98475 1.19049 9.00479 1.20947C9.02483 1.22951 9.04065 1.25377 9.05225 1.28014C9.0628 1.30546 9.06913 1.33394 9.06913 1.36347C9.06913 1.39301 9.0628 1.42148 9.05225 1.4468L9.0512 1.44785C9.04065 1.47317 9.02483 1.49637 9.00584 1.51536L9.00268 1.51852C8.98264 1.53751 8.95943 1.55333 8.93412 1.56388C8.9088 1.57443 8.88033 1.58076 8.85079 1.58076C8.82126 1.58076 8.79278 1.57443 8.76746 1.56388C8.74109 1.55333 8.71684 1.53646 8.69679 1.51641C8.67675 1.49637 8.66093 1.47211 8.64933 1.44574C8.63878 1.42043 8.63245 1.39195 8.63245 1.36242C8.63245 1.33288 8.63878 1.30546 8.64933 1.27909C8.66093 1.25272 8.67675 1.22846 8.69679 1.20842L8.69785 1.20736Z" fill="#475467"/>
<path d="M0.458984 0.504883H13.0119C13.0615 0.504883 13.1089 0.514376 13.1522 0.533362C13.2134 0.559731 13.3283 0.674702 13.3526 0.734824C13.3705 0.77807 13.3811 0.825535 13.3811 0.87511V3.37704C13.3811 3.42662 13.3716 3.47408 13.3526 3.51838C13.3336 3.56374 13.3062 3.60382 13.2724 3.63863L13.2682 3.64179C13.2344 3.67449 13.1954 3.70086 13.1522 3.71879C13.1089 3.73672 13.0615 3.74727 13.0119 3.74727H7.9036C7.88778 3.74727 7.87618 3.73461 7.87618 3.71984V0.940506H3.89545V1.66725L5.19177 3.14183C5.22869 3.18402 5.24556 3.23676 5.2424 3.28949C5.23923 3.34118 5.21603 3.39181 5.17384 3.42978L5.17173 3.43084C5.15274 3.44666 5.1327 3.45931 5.11055 3.4667C5.0884 3.47514 5.06414 3.47936 5.04094 3.47936H1.1467C1.0908 3.47936 1.03911 3.45615 1.00325 3.41923C0.966332 3.38232 0.943127 3.33169 0.943127 3.27578C0.943127 3.24625 0.949456 3.21882 0.961058 3.19351C0.972661 3.16714 0.989537 3.14394 1.01063 3.12495L2.34493 1.66619V0.940506H0.458984V0.504883ZM3.78681 6.68377C3.90705 6.68377 4.00515 6.78186 4.00515 6.90211C4.00515 7.02235 3.90705 7.12045 3.78681 7.12045C3.66656 7.12045 3.56847 7.02235 3.56847 6.90211C3.56847 6.78186 3.66656 6.68377 3.78681 6.68377ZM2.3945 6.68377C2.51475 6.68377 2.61284 6.78186 2.61284 6.90211C2.61284 7.02235 2.51475 7.12045 2.3945 7.12045C2.27426 7.12045 2.17616 7.02235 2.17616 6.90211C2.17616 6.78186 2.27426 6.68377 2.3945 6.68377ZM3.89967 5.51191V5.74291V6.04879H13.052C13.2545 6.04879 13.4211 6.21545 13.4211 6.41796V10.9134C13.4211 11.1159 13.2555 11.2826 13.053 11.2826C8.98158 11.2826 4.91225 11.2826 0.839759 11.2826C0.638296 11.2826 0.470587 11.1149 0.470587 10.9134V6.41796C0.470587 6.21439 0.636187 6.04879 0.839759 6.04879H2.28269C2.28269 5.86948 2.28269 5.69122 2.28269 5.51191H2.76262V5.74291H2.54322V6.04879H3.64019V5.74291H3.4208V5.51191H3.89967ZM13.0129 6.45594H9.88869V10.8755H13.014V6.45594H13.0129ZM9.48155 6.45594H5.39218V7.44004H9.48155V6.45594ZM4.98503 6.45594H0.876676V10.8755H4.98503V6.45594ZM5.39218 10.8744H9.48155V7.84719H5.39218V10.8744ZM10.3739 6.68377C10.4034 6.68377 10.4319 6.6901 10.4572 6.70064L10.4583 6.7017C10.4846 6.71225 10.5078 6.72912 10.5279 6.74811C10.5479 6.76815 10.5638 6.79241 10.5754 6.81878C10.5859 6.84409 10.5922 6.87257 10.5922 6.90211C10.5922 6.93164 10.5859 6.95907 10.5754 6.98543C10.5638 7.0118 10.5479 7.03606 10.5279 7.05611L10.5258 7.05716C10.5057 7.07615 10.4825 7.09197 10.4562 7.10252C10.4308 7.11306 10.4024 7.11939 10.3728 7.11939C10.3433 7.11939 10.3148 7.11306 10.2895 7.10252C10.2642 7.09197 10.241 7.07615 10.2209 7.05716L10.2178 7.05505C10.1977 7.03501 10.1819 7.01075 10.1714 6.98438L10.1703 6.98333C10.1598 6.95801 10.1545 6.93059 10.1545 6.90105C10.1545 6.87152 10.1608 6.84304 10.1714 6.81773C10.1819 6.79136 10.1988 6.7671 10.2188 6.74706C10.2389 6.72701 10.2631 6.71119 10.2895 6.69959L10.2906 6.69854C10.318 6.68904 10.3454 6.68377 10.3739 6.68377ZM8.29703 0.940506H8.28332V3.33801H12.976V0.940506H8.29703ZM8.69785 1.20736C8.71789 1.18838 8.74109 1.17256 8.76746 1.16201C8.79278 1.15146 8.82126 1.14513 8.85079 1.14513C8.88033 1.14513 8.9088 1.15146 8.93412 1.16201L8.93517 1.16306C8.96154 1.17361 8.98475 1.19049 9.00479 1.20947C9.02483 1.22951 9.04065 1.25377 9.05225 1.28014C9.0628 1.30546 9.06913 1.33394 9.06913 1.36347C9.06913 1.39301 9.0628 1.42148 9.05225 1.4468L9.0512 1.44785C9.04065 1.47317 9.02483 1.49637 9.00584 1.51536L9.00268 1.51852C8.98264 1.53751 8.95943 1.55333 8.93412 1.56388C8.9088 1.57443 8.88033 1.58076 8.85079 1.58076C8.82126 1.58076 8.79278 1.57443 8.76746 1.56388C8.74109 1.55333 8.71684 1.53646 8.69679 1.51641C8.67675 1.49637 8.66093 1.47211 8.64933 1.44574C8.63878 1.42043 8.63245 1.39195 8.63245 1.36242C8.63245 1.33288 8.63878 1.30546 8.64933 1.27909C8.66093 1.25272 8.67675 1.22846 8.69679 1.20842L8.69785 1.20736Z" stroke="#475467" stroke-width="0.243021" mask="url(#path-1-outside-1_496_11786)"/>
</g>
</g>
</svg>
