<svg width="20" height="20" viewBox="0 0 20 20" fill="none" xmlns="http://www.w3.org/2000/svg">
<g id="lock">
<path id="Icon" d="M6.04167 9.20703V6.04036C6.04167 4.99055 6.4587 3.98373 7.20104 3.2414C7.94337 2.49907 8.95018 2.08203 10 2.08203C11.0498 2.08203 12.0566 2.49907 12.799 3.2414C13.5413 3.98373 13.9583 4.99055 13.9583 6.04036V9.20703M4.45833 9.20703H15.5417C16.4161 9.20703 17.125 9.91591 17.125 10.7904V16.332C17.125 17.2065 16.4161 17.9154 15.5417 17.9154H4.45833C3.58388 17.9154 2.875 17.2065 2.875 16.332V10.7904C2.875 9.91591 3.58388 9.20703 4.45833 9.20703Z" stroke="#1A1D24" stroke-width="1.58333" stroke-linecap="round" stroke-linejoin="round"/>
</g>
</svg>
