<svg width="16" height="15" viewBox="0 0 16 15" fill="none" xmlns="http://www.w3.org/2000/svg">
<g id="Feather Icons/phone-incoming" clip-path="url(#clip0_496_11794)">
<path id="Vector" d="M10.6465 1.31836V4.96367H14.2918" stroke="#039855" stroke-width="1.2151" stroke-linecap="round" stroke-linejoin="round"/>
<path id="Vector_2" d="M14.8993 0.710938L10.6465 4.9638" stroke="#039855" stroke-width="1.2151" stroke-linecap="round" stroke-linejoin="round"/>
<path id="Vector_3" d="M14.292 10.3831V12.2057C14.2927 12.3749 14.2581 12.5424 14.1903 12.6975C14.1225 12.8525 14.0231 12.9917 13.8984 13.1061C13.7737 13.2204 13.6265 13.3075 13.4662 13.3617C13.3059 13.4159 13.1361 13.4361 12.9676 13.4208C11.098 13.2177 9.30222 12.5789 7.72441 11.5557C6.25646 10.6229 5.0119 9.3783 4.0791 7.91035C3.05232 6.32538 2.41334 4.52082 2.21392 2.64288C2.19873 2.47487 2.2187 2.30554 2.27254 2.14568C2.32639 1.98581 2.41293 1.8389 2.52666 1.71431C2.64039 1.58972 2.77882 1.49018 2.93313 1.42202C3.08744 1.35386 3.25425 1.31858 3.42294 1.31842H5.2456C5.54045 1.31552 5.82629 1.41993 6.04985 1.61219C6.27341 1.80445 6.41943 2.07145 6.4607 2.36341C6.53763 2.9467 6.6803 3.51941 6.88599 4.07063C6.96773 4.28808 6.98542 4.52442 6.93697 4.75162C6.88851 4.97882 6.77594 5.18737 6.61259 5.35256L5.841 6.12415C6.70588 7.64518 7.96528 8.90458 9.48631 9.76946L10.2579 8.99787C10.4231 8.83452 10.6316 8.72195 10.8588 8.6735C11.086 8.62504 11.3224 8.64273 11.5398 8.72447C12.091 8.93016 12.6638 9.07283 13.2471 9.14976C13.5422 9.19139 13.8117 9.34005 14.0044 9.56745C14.1971 9.79485 14.2994 10.0851 14.292 10.3831Z" stroke="#039855" stroke-width="1.2151" stroke-linecap="round" stroke-linejoin="round"/>
</g>
<defs>
<clipPath id="clip0_496_11794">
<rect width="14.5812" height="14.5812" fill="white" transform="translate(0.925781 0.103516)"/>
</clipPath>
</defs>
</svg>
