<svg width="20" height="20" viewBox="0 0 20 20" fill="none" xmlns="http://www.w3.org/2000/svg">
<g id="play-circle" clip-path="url(#clip0_461_21945)">
<g id="Icon">
<path d="M9.99959 18.3337C14.602 18.3337 18.3329 14.6027 18.3329 10.0003C18.3329 5.39795 14.602 1.66699 9.99959 1.66699C5.39722 1.66699 1.66626 5.39795 1.66626 10.0003C1.66626 14.6027 5.39722 18.3337 9.99959 18.3337Z" stroke="#101828" stroke-width="1.5" stroke-linecap="round" stroke-linejoin="round"/>
<path d="M7.91626 7.47144C7.91626 7.0737 7.91626 6.87483 7.99938 6.76381C8.07181 6.66705 8.18269 6.60652 8.30324 6.59791C8.44158 6.58803 8.60886 6.69557 8.94343 6.91065L12.8773 9.43954C13.1676 9.62617 13.3127 9.71949 13.3629 9.83815C13.4067 9.94183 13.4067 10.0588 13.3629 10.1625C13.3127 10.2812 13.1676 10.3745 12.8773 10.5611L8.94343 13.09C8.60886 13.3051 8.44158 13.4126 8.30324 13.4027C8.18269 13.3941 8.07181 13.3336 7.99938 13.2368C7.91626 13.1258 7.91626 12.927 7.91626 12.5292V7.47144Z" stroke="#101828" stroke-width="1.5" stroke-linecap="round" stroke-linejoin="round"/>
</g>
</g>
<defs>
<clipPath id="clip0_461_21945">
<rect width="20" height="20" fill="white"/>
</clipPath>
</defs>
</svg>
