<svg width="28" height="29" viewBox="0 0 28 29" fill="none" xmlns="http://www.w3.org/2000/svg">
<g id="share-2" clip-path="url(#clip0_268_10436)">
<path id="Icon" d="M10.0219 15.8141L17.9902 20.4574M17.9786 7.64741L10.0219 12.2907M24.5002 5.88574C24.5002 7.81874 22.9332 9.38574 21.0002 9.38574C19.0672 9.38574 17.5002 7.81874 17.5002 5.88574C17.5002 3.95275 19.0672 2.38574 21.0002 2.38574C22.9332 2.38574 24.5002 3.95275 24.5002 5.88574ZM10.5002 14.0524C10.5002 15.9854 8.93324 17.5524 7.00024 17.5524C5.06725 17.5524 3.50024 15.9854 3.50024 14.0524C3.50024 12.1194 5.06725 10.5524 7.00024 10.5524C8.93324 10.5524 10.5002 12.1194 10.5002 14.0524ZM24.5002 22.2191C24.5002 24.1521 22.9332 25.7191 21.0002 25.7191C19.0672 25.7191 17.5002 24.1521 17.5002 22.2191C17.5002 20.2861 19.0672 18.7191 21.0002 18.7191C22.9332 18.7191 24.5002 20.2861 24.5002 22.2191Z" stroke="#101828" stroke-width="2.77789" stroke-linecap="round" stroke-linejoin="round"/>
</g>
<defs>
<clipPath id="clip0_268_10436">
<rect width="28" height="28" fill="white" transform="translate(0 0.0527344)"/>
</clipPath>
</defs>
</svg>
