<svg width="20" height="20" viewBox="0 0 20 20" fill="none" xmlns="http://www.w3.org/2000/svg">
<g id="transaction-svgrepo-com 1">
<path id="Vector" d="M14.1683 10.833C14.6286 10.833 15.0017 11.2061 15.0017 11.6663C15.0017 12.0937 14.68 12.4459 14.2655 12.4941L14.1683 12.4997H4.51416L7.25758 15.2438C7.55799 15.5442 7.58109 16.0168 7.32691 16.3438L7.25758 16.4223C6.95718 16.7227 6.48449 16.7458 6.15758 16.4916L6.07907 16.4223L1.9124 12.2556C1.41026 11.7534 1.7286 10.9104 2.40697 10.838L2.50166 10.833H14.1683ZM13.8441 3.50776L13.9226 3.57709L18.0892 7.74375C18.5914 8.2459 18.273 9.08899 17.5947 9.16135L17.5 9.16634H5.83332C5.37309 9.16634 4.99999 8.79324 4.99999 8.33301C4.99999 7.90564 5.32169 7.55342 5.73614 7.50528L5.83332 7.49967H15.4875L12.7441 4.7556C12.4437 4.45519 12.4206 3.9825 12.6747 3.65559L12.7441 3.57709C13.0445 3.27668 13.5172 3.25357 13.8441 3.50776Z" fill="#101828"/>
</g>
</svg>
