<svg width="31" height="31" viewBox="0 0 31 31" fill="none" xmlns="http://www.w3.org/2000/svg">
<g id="Group 7166" filter="url(#filter0_d_531_8956)">
<path id="Vector" d="M9.5722 23.4581L9.98421 23.6641C11.7009 24.6941 13.6236 25.1747 15.5463 25.1747C21.589 25.1747 26.5331 20.2307 26.5331 14.188C26.5331 11.3039 25.3657 8.48856 23.3057 6.42854C21.2457 4.36852 18.499 3.20117 15.5463 3.20117C9.50353 3.20117 4.55948 8.14523 4.62815 14.2566C4.62815 16.3167 5.24616 18.308 6.27617 20.0247L6.55084 20.4367L5.45216 24.4881L9.5722 23.4581Z" fill="#25D366"/>
<path id="Vector_2" d="M24.473 5.32914C22.1383 2.92577 18.9109 1.62109 15.6149 1.62109C8.61077 1.62109 2.98004 7.32049 3.04871 14.2559C3.04871 16.4533 3.66672 18.5819 4.69673 20.5046L2.91138 27.028L9.57212 25.3114C11.4261 26.3414 13.4862 26.822 15.5462 26.822C22.4816 26.822 28.1123 21.1226 28.1123 14.1872C28.1123 10.8225 26.8076 7.66383 24.473 5.32914V5.32914ZM15.6149 24.6933C13.7608 24.6933 11.9068 24.2127 10.3275 23.2513L9.91545 23.0453L5.93274 24.0753L6.96276 20.1613L6.68809 19.7493C3.66672 14.8739 5.10873 8.41917 10.0528 5.3978C14.9968 2.37644 21.3829 3.81845 24.4043 8.76251C27.4256 13.7066 25.9836 20.0926 21.0396 23.114C19.4602 24.144 17.5375 24.6933 15.6149 24.6933V24.6933ZM21.6576 17.0713L20.9022 16.7279C20.9022 16.7279 19.8036 16.2473 19.1169 15.9039C19.0482 15.9039 18.9796 15.8353 18.9109 15.8353C18.7049 15.8353 18.5676 15.9039 18.4302 15.9726C18.4302 15.9726 18.3615 16.0413 17.4002 17.1399C17.3315 17.2773 17.1942 17.3459 17.0569 17.3459H16.9882C16.9195 17.3459 16.7822 17.2773 16.7135 17.2086L16.3702 17.0713C15.6149 16.7279 14.9282 16.3159 14.3788 15.7666C14.2415 15.6292 14.0355 15.4919 13.8982 15.3546C13.4175 14.8739 12.9368 14.3246 12.5935 13.7066L12.5248 13.5692C12.4561 13.5006 12.4561 13.4319 12.3875 13.2946C12.3875 13.1572 12.3875 13.0199 12.4561 12.9512C12.4561 12.9512 12.7308 12.6079 12.9368 12.4019C13.0742 12.2645 13.1428 12.0585 13.2802 11.9212C13.4175 11.7152 13.4862 11.4405 13.4175 11.2345C13.3488 10.8912 12.5248 9.03718 12.3188 8.62517C12.1815 8.41917 12.0441 8.3505 11.8381 8.28183H11.0828C10.9455 8.28183 10.8081 8.3505 10.6708 8.3505L10.6021 8.41917C10.4648 8.48784 10.3275 8.62517 10.1901 8.69384C10.0528 8.83117 9.98412 8.96851 9.84679 9.10584C9.36612 9.72385 9.09145 10.4792 9.09145 11.2345C9.09145 11.7839 9.22878 12.3332 9.43478 12.8139L9.50345 13.0199C10.1215 14.3246 10.9455 15.4919 12.0441 16.5219L12.3188 16.7966C12.5248 17.0026 12.7308 17.1399 12.8682 17.3459C14.3102 18.5819 15.9582 19.4746 17.8122 19.9553C18.0182 20.024 18.2929 20.024 18.4989 20.0926H19.1856C19.5289 20.0926 19.9409 19.9553 20.2156 19.818C20.4216 19.6806 20.5589 19.6806 20.6962 19.5433L20.8336 19.406C20.9709 19.2686 21.1082 19.2 21.2456 19.0626C21.3829 18.9253 21.5203 18.788 21.5889 18.6506C21.7263 18.3759 21.7949 18.0326 21.8636 17.6893V17.2086C21.8636 17.2086 21.7949 17.1399 21.6576 17.0713V17.0713Z" fill="white"/>
</g>
<defs>
<filter id="filter0_d_531_8956" x="0.604797" y="0.852234" width="29.8141" height="30.0204" filterUnits="userSpaceOnUse" color-interpolation-filters="sRGB">
<feFlood flood-opacity="0" result="BackgroundImageFix"/>
<feColorMatrix in="SourceAlpha" type="matrix" values="0 0 0 0 0 0 0 0 0 0 0 0 0 0 0 0 0 0 127 0" result="hardAlpha"/>
<feOffset dy="1.53772"/>
<feGaussianBlur stdDeviation="1.15329"/>
<feColorMatrix type="matrix" values="0 0 0 0 0.0554688 0 0 0 0 0.295833 0 0 0 0 0.223724 0 0 0 0.54 0"/>
<feBlend mode="normal" in2="BackgroundImageFix" result="effect1_dropShadow_531_8956"/>
<feBlend mode="normal" in="SourceGraphic" in2="effect1_dropShadow_531_8956" result="shape"/>
</filter>
</defs>
</svg>
